HIERARCHY
ROOT Hips
{
     OFFSET 12.88990 94.84120 -48.72550
     CHANNELS 6 Xposition Yposition Zposition Zrotation Xrotation Yrotation
     JOINT Spine
     {
          OFFSET 0.00000 11.89050 -0.00000
          CHANNELS 3 Zrotation Xrotation Yrotation
          JOINT Spine1
          {
               OFFSET 0.00000 25.65740 0.12766
               CHANNELS 3 Zrotation Xrotation Yrotation
               JOINT HEad
               {
                    OFFSET 0.00000 8.73416 0.01134
                    CHANNELS 3 Zrotation Xrotation Yrotation
                    End Site
                    {
                         OFFSET -0.29000 12.77420 2.51395
                    }
               }
               JOINT LeftShoulder1
               {
                    OFFSET 8.99000 -0.36225 -0.22000
                    CHANNELS 3 Zrotation Xrotation Yrotation
                    JOINT LeftArm
                    {
                         OFFSET 10.28270 -0.00338 0.32212
                         CHANNELS 3 Zrotation Xrotation Yrotation
                         JOINT LeftForeArm
                         {
                              OFFSET 32.76690 0.09914 -1.42434
                              CHANNELS 3 Zrotation Xrotation Yrotation
                              JOINT LeftHand
                              {
                                   OFFSET 27.56430 0.08536 1.02216
                                   CHANNELS 3 Zrotation Xrotation Yrotation
                                   End Site
                                   {
                                        OFFSET 16.74430 -0.60000 1.50291
                                   }
                              }
                         }
                    }
               }
               JOINT RightShoulder
               {
                    OFFSET -8.99000 -0.36225 -0.22000
                    CHANNELS 3 Zrotation Xrotation Yrotation
                    JOINT RightArm
                    {
                         OFFSET -10.28270 -0.00338 0.32212
                         CHANNELS 3 Zrotation Xrotation Yrotation
                         JOINT RightForeArm
                         {
                              OFFSET -32.89710 0.09914 -1.42434
                              CHANNELS 3 Zrotation Xrotation Yrotation
                              JOINT RightHand
                              {
                                   OFFSET -27.49210 0.08536 1.02216
                                   CHANNELS 3 Zrotation Xrotation Yrotation
                                   End Site
                                   {
                                        OFFSET -16.63120 -0.60000 1.50291
                                   }
                              }
                         }
                    }
               }
          }
     }
     JOINT LeftUpLeg
     {
          OFFSET 8.94580 -8.66707 0.10165
          CHANNELS 3 Zrotation Xrotation Yrotation
          JOINT LeftLeg
          {
               OFFSET -0.00000 -44.42270 1.37270
               CHANNELS 3 Zrotation Xrotation Yrotation
               JOINT LeftFoot
               {
                    OFFSET -0.25355 -42.09240 -1.46059
                    CHANNELS 3 Zrotation Xrotation Yrotation
                    JOINT LeftToes
                    {
                         OFFSET -0.04000 -4.41509 8.49910
                         CHANNELS 3 Zrotation Xrotation Yrotation
                         End Site
                         {
                              OFFSET 0.08000 -0.04745 9.77979
                         }
                    }
               }
          }
     }
     JOINT RightUpLeg
     {
          OFFSET -8.94580 -8.66707 0.10165
          CHANNELS 3 Zrotation Xrotation Yrotation
          JOINT RightLeg
          {
               OFFSET 0.00000 -44.42270 1.37270
               CHANNELS 3 Zrotation Xrotation Yrotation
               JOINT RightFoot
               {
                    OFFSET 0.25355 -42.09240 -1.46059
                    CHANNELS 3 Zrotation Xrotation Yrotation
                    JOINT RightToes
                    {
                         OFFSET 0.04000 -4.41509 8.49910
                         CHANNELS 3 Zrotation Xrotation Yrotation
                         End Site
                         {
                              OFFSET -0.08000 -0.13745 9.77979
                         }
                    }
               }
          }
     }
}
MOTION
Frames: 10
Frame Time: 0.01667
28.16150 84.06140 -12.16610 4.65993 -16.53290 22.79380 1.37018 12.65430 -0.75328 -1.22786 26.55940 9.27592 12.92130 1.12612 -36.35600 -0.00000 0.00000 -0.00000 -129.42200 -47.99180 -107.65500 -73.18020 52.19030 -67.07630 14.50550 6.76475 -21.43570 14.08330 0.86954 2.55276 45.04920 -37.08890 35.07840 36.67830 -21.51200 64.12080 41.89240 13.34910 4.68345 -5.84281 -29.47590 -21.57700 -15.68880 31.41510 50.97430 5.10698 39.21430 -2.36796 -8.48223 -39.59010 -92.26600 -30.24090 16.95050 9.24685 57.13480 44.65460 -40.78780 -19.63080 20.39040 4.84815 9.86932 -62.55590 7.87564 
28.31560 83.77340 -12.00840 5.54010 -17.89220 21.73230 1.17914 13.31930 0.67736 -1.80202 27.70710 12.44630 11.93140 2.19044 -37.79110 -0.00000 0.00000 -0.00000 -128.01199 -47.43360 -104.93200 -71.66890 52.47670 -69.18160 13.68560 7.02738 -20.81220 8.54174 1.09834 6.28211 49.19540 -33.21180 46.97860 35.26350 -18.51270 64.11610 43.84580 12.76040 2.78452 -4.83457 -28.31090 -20.94960 -17.82590 31.77960 54.12650 5.56983 38.81100 -2.53611 -9.49414 -40.32620 -93.78410 -31.27440 17.94200 9.87990 56.64280 44.96200 -42.22560 -21.28330 19.77310 5.14411 10.56900 -64.32380 8.39653 
28.40550 83.48560 -11.77070 6.36313 -19.09050 20.54710 0.90934 13.91340 1.99848 -2.53574 28.69170 15.47430 11.26930 2.83109 -39.50420 -0.00000 0.00000 -0.00000 -126.86600 -46.37780 -102.72700 -70.75130 52.87390 -70.08850 12.65660 7.33968 -20.05800 2.41498 0.92476 10.31420 52.14370 -28.04310 56.90500 34.96850 -14.88960 65.16220 45.48990 12.12790 0.99158 -3.93495 -27.27150 -20.07040 -19.72260 32.27280 56.70010 5.98904 37.94080 -2.65413 -10.47590 -41.08310 -94.97060 -32.51870 18.76380 10.64630 56.38300 45.49180 -43.80490 -23.06850 18.85120 5.39205 11.59580 -65.08170 9.90993 
28.32990 83.20000 -11.43850 7.11267 -19.84350 19.95500 0.52914 14.34700 3.20820 -3.30519 29.32960 18.22930 11.28480 2.56171 -42.13350 -0.00000 0.00000 -0.00000 -125.91800 -44.82350 -101.09600 -69.92190 53.50550 -70.28050 11.60930 7.65278 -19.18110 -3.28106 0.37391 13.92210 53.61280 -22.65780 64.59660 36.59520 -10.86190 66.97760 46.94200 11.44890 -0.75645 -3.56705 -26.68630 -19.29630 -20.97940 33.06140 58.27830 6.24517 36.99030 -2.69613 -11.38510 -41.77310 -95.99090 -33.59680 19.59730 11.10000 56.38670 45.84440 -45.54410 -24.84930 17.47850 5.51002 12.81220 -65.13590 12.06660 
28.06320 82.93620 -11.01970 7.77660 -20.04790 20.29810 0.09662 14.59610 4.25038 -3.93905 29.60410 20.52310 11.92120 1.33239 -45.55470 -0.00000 0.00000 -0.00000 -125.02800 -43.06830 -99.94220 -68.94260 54.31420 -70.21640 10.73310 7.91385 -18.30680 -7.70144 -0.30176 16.61980 54.16800 -17.71310 70.70780 39.70720 -6.10654 68.47680 48.64930 10.89170 -2.12993 -3.81962 -26.67160 -18.94670 -21.55640 34.10010 58.95930 6.33161 36.28570 -2.68448 -12.20270 -42.33040 -97.01420 -34.26140 20.58660 10.96900 56.59220 45.83100 -47.32840 -26.32630 15.87740 5.46592 13.95610 -64.81510 14.30160 
27.66500 82.72630 -10.54960 8.31148 -19.83230 21.42580 -0.29444 14.72580 5.05355 -4.33454 29.67320 22.20800 12.77570 -0.52785 -48.93050 -0.00000 0.00000 -0.00000 -124.11800 -41.58050 -99.21440 -67.96580 55.05760 -70.08610 10.14500 8.08838 -17.63210 -10.54200 -0.85647 18.49400 54.33120 -13.33560 75.53580 42.90410 -0.73703 68.98070 50.82590 10.63860 -2.76864 -4.47908 -27.05830 -19.10040 -21.66380 35.17960 59.04330 6.23320 35.96570 -2.62595 -12.84590 -42.68050 -98.02380 -34.46980 21.70910 10.31410 56.89700 45.47400 -48.90080 -27.20460 14.47880 5.31015 14.86400 -64.35490 16.22620 
27.23630 82.60080 -10.08880 8.68623 -19.45980 22.86990 -0.59052 14.83610 5.59375 -4.52271 29.74450 23.27730 13.43310 -2.43478 -51.22520 -0.00000 0.00000 -0.00000 -123.23600 -40.76590 -98.91770 -67.24790 55.50750 -69.87010 9.90413 8.16215 -17.30160 -11.91950 -1.19049 19.87880 54.48070 -9.47234 78.88130 45.00160 4.55824 68.80390 52.95590 10.72620 -2.66349 -5.20394 -27.53390 -19.54510 -21.56500 36.08610 58.76670 5.86921 35.97380 -2.48655 -13.14210 -42.72740 -98.80680 -34.37160 22.79800 9.44536 57.19890 44.91740 -50.01910 -27.43760 13.70770 5.16560 15.62680 -64.02670 17.82930 
26.86930 82.57400 -9.70485 8.89648 -19.15410 24.14780 -0.79937 14.99250 5.90030 -4.61971 29.93900 23.84160 13.75180 -3.80863 -51.77790 -0.00000 0.00000 -0.00000 -122.42600 -40.76450 -98.95020 -66.68630 55.62660 -69.71410 10.01730 8.14397 -17.26160 -12.08570 -1.28822 20.89980 55.00900 -6.07957 80.50760 45.78970 9.06398 68.61460 54.27500 11.03120 -2.11340 -5.70762 -27.87270 -19.96570 -21.43960 36.71120 58.25380 5.10555 36.16690 -2.20345 -12.89790 -42.37230 -99.10000 -34.18760 23.64290 8.68238 57.42830 44.34510 -50.60730 -27.24340 13.78920 5.14751 16.59240 -64.10580 19.52070 
26.62260 82.64070 -9.44928 8.92120 -18.99460 24.94340 -0.95609 15.20660 6.01528 -4.73528 30.25710 24.02590 13.86200 -4.37484 -50.60480 -0.00000 0.00000 -0.00000 -121.72400 -41.41950 -99.08970 -65.86970 55.58170 -69.93890 10.44460 8.06116 -17.28030 -11.27070 -1.15407 21.42280 56.32780 -3.26844 80.41080 45.78020 12.41570 68.69870 54.49070 11.35880 -1.48540 -5.83158 -28.03860 -20.17910 -21.38510 37.02030 57.63830 3.89353 36.43270 -1.74720 -12.06540 -41.59930 -98.78100 -34.07010 24.06130 8.20865 57.55880 43.89640 -50.70040 -26.86670 14.67920 5.29021 18.35190 -64.70590 22.19860 
26.52090 82.78000 -9.34718 8.71050 -18.94800 25.12190 -1.08000 15.45170 5.96314 -4.92381 30.62980 23.90360 13.97440 -4.23158 -48.35450 -0.00000 0.00000 -0.00000 -121.23800 -42.39790 -99.14340 -64.63700 55.62480 -70.57180 11.15530 7.93654 -17.16640 -9.62934 -0.81062 21.29270 58.63890 -1.38197 78.78000 45.57270 14.58630 68.99410 53.70130 11.56880 -1.02099 -5.51407 -28.11280 -20.17730 -21.47650 36.98290 57.14640 2.47052 36.68660 -1.20268 -10.88760 -40.58850 -97.98230 -34.05780 23.93910 8.06371 57.59860 43.64340 -50.32120 -26.37640 16.11810 5.53447 21.56300 -65.57310 27.01330 
